# xmcd
#
# Track frame offsets:
#	150
#	16590
#	30981
#	48356
#	61467
#	79008
#	94961
#	116934
#	129107
#	144212
#	155497
#
# Disc length: 2417 seconds
#
# Revision: 1
# Processed by: cddbd v1.5.2PL0 Copyright (c) Steve Scherf et al.
# Submitted via: audiograbber 1.83.01
#
DISCID=80096f0b
DTITLE=The Blackwater Fever - In Stereo
DYEAR=2011
DGENRE=Blues/rock
TTITLE0=In Stereo
TTITLE1=Love Gone Astray
TTITLE2=Taking It's Toll
TTITLE3=All Night Long
TTITLE4=Burn Baby Burn
TTITLE5=Sophia's Waltz
TTITLE6=Hot Resin
TTITLE7=Back Roads
TTITLE8=Shot Thru
TTITLE9=Who's Been Talking?
TTITLE10=No Harm
EXTD=
EXTT0=
EXTT1=
EXTT2=
EXTT3=
EXTT4=
EXTT5=
EXTT6=
EXTT7=
EXTT8=
EXTT9=
EXTT10=
PLAYORDER=
